<svg xmlns="http://www.w3.org/2000/svg" viewBox="0 0 600 217"><title>pilot</title><path d="M124.56,108.74q-6,10.7-18.15,17.13t-29.67,6.42H57.21V181H17V37.06H76.74q17.34,0,29.47,6.12A42.09,42.09,0,0,1,124.46,60.1,49.63,49.63,0,0,1,130.58,85,47.68,47.68,0,0,1,124.56,108.74Zm-33.95-24q0-16-17.22-16H57.21v31.75H73.39Q90.61,100.55,90.61,84.78Z" fill="#fff"/><path d="M251.89,151.33h44.44v31.74H211.68v-146h40.21Z" fill="#fff"/><path d="M343.44,173.6a71.07,71.07,0,0,1-27-26.46q-10-16.92-10-38.25t10-38.25a70.32,70.32,0,0,1,27-26.36,78.8,78.8,0,0,1,74.76,0A69.77,69.77,0,0,1,445,70.64q9.84,16.92,9.85,38.25T445,147.14a70.32,70.32,0,0,1-26.87,26.46,77.86,77.86,0,0,1-74.65,0Zm61.63-37.84q8.93-10,8.92-26.87,0-17.23-8.92-27.18t-24.3-9.94q-15.6,0-24.41,9.94t-8.82,27.18q0,17,8.82,27t24.41,9.94Q396.15,145.8,405.07,135.76Z" fill="#fff"/><path d="M582,37.06V68.8H543.91V181H503.7V68.8H465.61V37.06Z" fill="#fff"/><rect x="148.2" y="92.08" width="40.21" height="88.88" fill="#fff"/><circle cx="168.3" cy="57.17" r="20.1" fill="#fff"/></svg>