<svg xmlns="http://www.w3.org/2000/svg" viewBox="0 0 406 109"><title>pilot</title><path d="M93.43,51.12A15.77,15.77,0,0,1,77.66,66.89h-.57a.85.85,0,0,0,.65-1.39L52.35,35.36H77.66A15.77,15.77,0,0,1,93.43,51.12Z" fill="#3b82f6"/><path d="M77.74,65.5a.85.85,0,0,1-.65,1.39H63.94L52.32,35.36h0Z" fill="#629bf8"/><path d="M52.32,35.36,63.94,66.89,53.69,75.68a.85.85,0,0,1-1.4-.64V35.36Z" fill="#89b4fa"/><path d="M122,55.57A8.64,8.64,0,0,1,118.38,59a12.53,12.53,0,0,1-5.91,1.28h-3.88v9.68h-8V41.31h11.88a13,13,0,0,1,5.87,1.22A8.35,8.35,0,0,1,122,45.89a9.92,9.92,0,0,1,1.21,5A9.58,9.58,0,0,1,122,55.57Zm-6.76-4.77q0-3.18-3.42-3.18h-3.22v6.32h3.22Q115.23,53.94,115.23,50.8Z" fill="#1b1b26"/><path d="M147.32,64h8.84v6.32H139.32v-29h8Z" fill="#1b1b26"/><path d="M165.54,68.47a14.13,14.13,0,0,1-5.37-5.26,15.61,15.61,0,0,1,0-15.22,14,14,0,0,1,5.37-5.24,15.64,15.64,0,0,1,14.87,0A13.87,13.87,0,0,1,185.73,48a15.75,15.75,0,0,1,0,15.22,13.91,13.91,0,0,1-5.34,5.26,15.46,15.46,0,0,1-14.85,0ZM177.8,61a7.8,7.8,0,0,0,1.77-5.35,7.82,7.82,0,0,0-1.77-5.41,6.92,6.92,0,0,0-9.69,0,7.86,7.86,0,0,0-1.76,5.41A7.81,7.81,0,0,0,168.11,61a6.92,6.92,0,0,0,9.69,0Z" fill="#1b1b26"/><path d="M213,41.31v6.31h-7.58V69.94h-8V47.62h-7.58V41.31Z" fill="#1b1b26"/><rect x="126.69" y="52.26" width="8" height="17.68" fill="#1b1b26"/><circle cx="130.69" cy="45.31" r="4" fill="#3b82f6"/><path d="M229.47,37.12a2.45,2.45,0,0,1-.74-1.83,2.38,2.38,0,0,1,.74-1.8,2.55,2.55,0,0,1,3.55,0,2.38,2.38,0,0,1,.74,1.8,2.45,2.45,0,0,1-.74,1.83,2.5,2.5,0,0,1-3.55,0ZM233,43v27h-3.45V43Z" fill="#3f3f59"/><path d="M240.92,49.09a12,12,0,0,1,4.64-4.84,13.4,13.4,0,0,1,6.77-1.7A13.15,13.15,0,0,1,260.55,45a11.17,11.17,0,0,1,4.17,6.72H261a7.56,7.56,0,0,0-3-4.57,9.52,9.52,0,0,0-5.7-1.66,9.76,9.76,0,0,0-4.89,1.24A8.63,8.63,0,0,0,244,50.43a13,13,0,0,0-1.26,6,13.13,13.13,0,0,0,1.26,6,8.57,8.57,0,0,0,3.43,3.7,9.66,9.66,0,0,0,4.89,1.24,9.45,9.45,0,0,0,5.7-1.66,7.59,7.59,0,0,0,3-4.61h3.7a11.26,11.26,0,0,1-4.2,6.66,13,13,0,0,1-8.19,2.52,13.4,13.4,0,0,1-6.77-1.7,12,12,0,0,1-4.64-4.84,15.31,15.31,0,0,1-1.68-7.33A15.32,15.32,0,0,1,240.92,49.09Z" fill="#3f3f59"/><path d="M276.05,68.6a12.39,12.39,0,0,1-4.79-4.84,14.78,14.78,0,0,1-1.75-7.33,14.59,14.59,0,0,1,1.78-7.34,12.38,12.38,0,0,1,4.84-4.84,13.9,13.9,0,0,1,6.86-1.7,14.1,14.1,0,0,1,6.89,1.7,12.31,12.31,0,0,1,4.84,4.84,14.9,14.9,0,0,1,1.75,7.34,14.57,14.57,0,0,1-1.78,7.3,12.25,12.25,0,0,1-4.89,4.87,14.18,14.18,0,0,1-6.91,1.7A13.82,13.82,0,0,1,276.05,68.6Zm11.78-2.52a9.31,9.31,0,0,0,3.68-3.66,11.77,11.77,0,0,0,1.4-6,12,12,0,0,0-1.38-6,9.12,9.12,0,0,0-3.65-3.66,10.69,10.69,0,0,0-9.88,0,9,9,0,0,0-3.63,3.66,12.26,12.26,0,0,0-1.35,6,12.2,12.2,0,0,0,1.35,6A9,9,0,0,0,278,66.08a10.15,10.15,0,0,0,4.91,1.21A10.32,10.32,0,0,0,287.83,66.08Z" fill="#3f3f59"/><path d="M323.33,45.44q3.06,3,3.06,8.67v15.8H323V54.5q0-4.39-2.19-6.71a7.88,7.88,0,0,0-6-2.33,8.14,8.14,0,0,0-6.22,2.47q-2.32,2.48-2.32,7.26V69.91h-3.46V43h3.46v4.59a8.77,8.77,0,0,1,3.7-3.78,11.35,11.35,0,0,1,5.48-1.31A10.84,10.84,0,0,1,323.33,45.44Z" fill="#3f3f59"/><path d="M335.75,68.15a7.82,7.82,0,0,1-3.29-5.85H336A5.07,5.07,0,0,0,338.17,66a8.37,8.37,0,0,0,5.11,1.41,6.72,6.72,0,0,0,4.42-1.34,4.11,4.11,0,0,0,1.6-3.3,3.11,3.11,0,0,0-.89-2.28,6.24,6.24,0,0,0-2.24-1.4A33.82,33.82,0,0,0,342.49,58a38.87,38.87,0,0,1-4.89-1.58A8.42,8.42,0,0,1,334.41,54a6.29,6.29,0,0,1-1.3-4.17,6.16,6.16,0,0,1,1.18-3.65,8.1,8.1,0,0,1,3.36-2.67,11.78,11.78,0,0,1,4.94-1,10.66,10.66,0,0,1,7,2.2,8,8,0,0,1,2.86,6H349A5.21,5.21,0,0,0,347.15,47a8,8,0,0,0-8.91-.22,3.7,3.7,0,0,0-1.63,3.06,3.61,3.61,0,0,0,1,2.59A6.61,6.61,0,0,0,340,54c.95.38,2.24.8,3.85,1.26a37.52,37.52,0,0,1,4.64,1.53,8,8,0,0,1,3,2.17,5.85,5.85,0,0,1,1.29,3.81,6.62,6.62,0,0,1-1.19,3.87,8,8,0,0,1-3.31,2.69,11.4,11.4,0,0,1-4.88,1A12.53,12.53,0,0,1,335.75,68.15Z" fill="#3f3f59"/></svg>