<svg xmlns="http://www.w3.org/2000/svg" viewBox="0 0 600 217"><title>pilot</title><path d="M126.18,108.74q-6,10.67-18.08,17.07t-29.57,6.4H59.06V180.7H19V37.32H78.53q17.28,0,29.36,6.09a42,42,0,0,1,18.19,16.87,49.48,49.48,0,0,1,6.09,24.79A47.53,47.53,0,0,1,126.18,108.74ZM92.35,84.87q0-15.93-17.16-15.92H59.06v31.63H75.19Q92.35,100.58,92.35,84.87Z" fill="#1b1b26"/><path d="M253.06,151.18h44.28v31.63H213V37.32h40.07Z" fill="#1b1b26"/><path d="M344.28,173.37A70.86,70.86,0,0,1,317.41,147q-9.92-16.86-9.91-38.11t9.91-38.12a70.08,70.08,0,0,1,26.87-26.26,78.51,78.51,0,0,1,74.5,0,69.56,69.56,0,0,1,26.67,26.26q9.81,16.86,9.81,38.12T445.45,147a70.14,70.14,0,0,1-26.78,26.37,77.56,77.56,0,0,1-74.39,0Zm61.42-37.71q8.88-10,8.89-26.77,0-17.17-8.89-27.08T381.48,71.9q-15.54,0-24.32,9.91t-8.79,27.08q0,17,8.79,26.87t24.32,9.91Q396.81,145.67,405.7,135.66Z" fill="#1b1b26"/><path d="M582,37.32V69H544V180.7H504V69H466V37.32Z" fill="#1b1b26"/><rect x="149.73" y="92.14" width="40.06" height="88.56" fill="#1b1b26"/><circle cx="169.77" cy="57.35" r="20.03" fill="#3b82f6"/></svg>