<svg xmlns="http://www.w3.org/2000/svg" viewBox="0 0 600 195"><title>pilot</title><path d="M166.49,82.3A53.74,53.74,0,0,1,112.75,136h-1.93a2.88,2.88,0,0,0,2.2-4.74L26.5,28.56h86.25A53.74,53.74,0,0,1,166.49,82.3Z" fill="#fff"/><path d="M113,131.3a2.88,2.88,0,0,1-2.2,4.74H66L26.39,28.56h.11Z" fill="#fff"/><path d="M26.39,28.56,66,136,31.05,166a2.88,2.88,0,0,1-4.76-2.19V28.56Z" fill="#fff"/><path d="M263.82,97.45a29.41,29.41,0,0,1-12.31,11.61q-8.22,4.36-20.11,4.36H218.15v33H190.88V48.85H231.4q11.74,0,20,4.15a28.54,28.54,0,0,1,12.37,11.47,33.62,33.62,0,0,1,4.15,16.87A32.31,32.31,0,0,1,263.82,97.45Zm-23-16.25q0-10.83-11.68-10.83h-11V91.89h11Q240.79,91.89,240.8,81.2Z" fill="#fff"/><path d="M350.16,126.33h30.13v21.53h-57.4v-99h27.27Z" fill="#fff"/><path d="M412.24,141.43A48.1,48.1,0,0,1,394,123.49a50.2,50.2,0,0,1-6.75-25.94A50.2,50.2,0,0,1,394,71.61a47.64,47.64,0,0,1,18.29-17.87,53.46,53.46,0,0,1,50.69,0,47.34,47.34,0,0,1,18.15,17.87,50.64,50.64,0,0,1,6.67,25.94,50.64,50.64,0,0,1-6.67,25.94,47.71,47.71,0,0,1-18.22,17.94,52.81,52.81,0,0,1-50.62,0ZM454,115.77q6-6.81,6.05-18.22,0-11.68-6.05-18.43t-16.48-6.74Q427,72.38,421,79.12t-6,18.43q0,11.55,6,18.29t16.55,6.74Q448,122.58,454,115.77Z" fill="#fff"/><path d="M574,48.85V70.37H548.17v76H520.91v-76H495.08V48.85Z" fill="#fff"/><rect x="279.85" y="86.16" width="27.26" height="60.27" fill="#fff"/><circle cx="293.48" cy="62.48" r="13.63" fill="#fff"/></svg>