<svg xmlns="http://www.w3.org/2000/svg" viewBox="0 0 600 109"><title>pilot</title><path d="M93.43,49.12A15.77,15.77,0,0,1,77.66,64.89h-.57a.85.85,0,0,0,.65-1.39L52.35,33.36H77.66A15.77,15.77,0,0,1,93.43,49.12Z" fill="#3b82f6"/><path d="M77.74,63.5a.85.85,0,0,1-.65,1.39H63.94L52.32,33.36h0Z" fill="#629bf8"/><path d="M52.32,33.36,63.94,64.89,53.69,73.68a.85.85,0,0,1-1.4-.64V33.36Z" fill="#89b4fa"/><path d="M122,53.57A8.64,8.64,0,0,1,118.38,57a12.53,12.53,0,0,1-5.91,1.28h-3.88v9.68h-8V39.31h11.88a13,13,0,0,1,5.87,1.22A8.35,8.35,0,0,1,122,43.89a9.92,9.92,0,0,1,1.21,5A9.58,9.58,0,0,1,122,53.57Zm-6.76-4.77q0-3.18-3.42-3.18h-3.22v6.32h3.22Q115.23,51.94,115.23,48.8Z" fill="#1b1b26"/><path d="M147.32,62h8.84v6.32H139.32v-29h8Z" fill="#1b1b26"/><path d="M165.54,66.47a14.13,14.13,0,0,1-5.37-5.26,15.61,15.61,0,0,1,0-15.22,14,14,0,0,1,5.37-5.24,15.64,15.64,0,0,1,14.87,0A13.87,13.87,0,0,1,185.73,46a15.75,15.75,0,0,1,0,15.22,13.91,13.91,0,0,1-5.34,5.26,15.46,15.46,0,0,1-14.85,0ZM177.8,59a7.8,7.8,0,0,0,1.77-5.35,7.82,7.82,0,0,0-1.77-5.41,6.92,6.92,0,0,0-9.69,0,7.86,7.86,0,0,0-1.76,5.41A7.81,7.81,0,0,0,168.11,59a6.92,6.92,0,0,0,9.69,0Z" fill="#1b1b26"/><path d="M213,39.31v6.31h-7.58V67.94h-8V45.62h-7.58V39.31Z" fill="#1b1b26"/><rect x="126.69" y="50.26" width="8" height="17.68" fill="#1b1b26"/><circle cx="130.69" cy="43.31" r="4" fill="#3b82f6"/><path d="M227.45,45.52a12.5,12.5,0,0,1,4.86-5.07,15.34,15.34,0,0,1,15.69.8,11.75,11.75,0,0,1,4.37,7h-3.88a7.92,7.92,0,0,0-3.13-4.78,10,10,0,0,0-6-1.73,10.16,10.16,0,0,0-5.11,1.29,9.08,9.08,0,0,0-3.6,3.85,13.6,13.6,0,0,0-1.32,6.28,13.73,13.73,0,0,0,1.32,6.31,9.05,9.05,0,0,0,3.6,3.88,10.16,10.16,0,0,0,5.11,1.29,10,10,0,0,0,6-1.73,7.92,7.92,0,0,0,3.13-4.83h3.88a11.82,11.82,0,0,1-4.4,7,13.59,13.59,0,0,1-8.58,2.64,14,14,0,0,1-7.08-1.78,12.5,12.5,0,0,1-4.86-5.07,16.06,16.06,0,0,1-1.76-7.68A16.05,16.05,0,0,1,227.45,45.52Z" fill="#3f3f59"/><path d="M264.23,65.94a12.86,12.86,0,0,1-5-5.07,15.42,15.42,0,0,1-1.84-7.68,15.31,15.31,0,0,1,1.86-7.67,13,13,0,0,1,5.07-5.07,14.51,14.51,0,0,1,7.18-1.78,14.69,14.69,0,0,1,7.22,1.78,12.79,12.79,0,0,1,5.06,5.07,15.52,15.52,0,0,1,1.84,7.67,15.38,15.38,0,0,1-1.86,7.66,12.92,12.92,0,0,1-5.12,5.09,14.82,14.82,0,0,1-7.24,1.78A14.38,14.38,0,0,1,264.23,65.94Zm12.33-2.64a9.62,9.62,0,0,0,3.85-3.82,12.45,12.45,0,0,0,1.47-6.29,12.65,12.65,0,0,0-1.44-6.28,9.51,9.51,0,0,0-3.83-3.82,11.16,11.16,0,0,0-10.34,0,9.38,9.38,0,0,0-3.8,3.82,12.87,12.87,0,0,0-1.42,6.28,12.88,12.88,0,0,0,1.42,6.29,9.4,9.4,0,0,0,3.78,3.82,10.61,10.61,0,0,0,5.14,1.27A10.78,10.78,0,0,0,276.56,63.3Z" fill="#3f3f59"/><path d="M333.92,41.69Q337,44.83,337,50.77V67.31h-3.56V51.18c0-3.07-.75-5.41-2.23-7a7.79,7.79,0,0,0-6.05-2.43,8.14,8.14,0,0,0-6.35,2.63Q316.46,47,316.47,52v15.3H312.9V51.18q0-4.6-2.22-7a7.86,7.86,0,0,0-6.1-2.43,8.16,8.16,0,0,0-6.36,2.63Q295.83,47,295.84,52v15.3h-3.62V39.08h3.62v4.86a9.28,9.28,0,0,1,3.83-4,11.28,11.28,0,0,1,5.53-1.37,11.78,11.78,0,0,1,6.44,1.76,10,10,0,0,1,4,5.17,9.56,9.56,0,0,1,3.9-5.14,11.36,11.36,0,0,1,6.29-1.79A11,11,0,0,1,333.92,41.69Z" fill="#3f3f59"/><path d="M352.89,40.56a12.49,12.49,0,0,1,6.95-1.89,13.49,13.49,0,0,1,6.9,1.78,12.45,12.45,0,0,1,4.81,5.07,16.16,16.16,0,0,1,1.73,7.62,16.28,16.28,0,0,1-1.73,7.65,12.52,12.52,0,0,1-4.81,5.12,13.31,13.31,0,0,1-6.9,1.81,12.56,12.56,0,0,1-6.93-1.89,11.35,11.35,0,0,1-4.29-4.73V80.64h-3.57V39.08h3.57v6.21A11.36,11.36,0,0,1,352.89,40.56Zm15.35,6.51a9.41,9.41,0,0,0-3.75-3.9,10.68,10.68,0,0,0-5.37-1.35,10.34,10.34,0,0,0-5.3,1.4,9.92,9.92,0,0,0-3.8,4,13.54,13.54,0,0,0,0,12,9.92,9.92,0,0,0,3.8,4,10.34,10.34,0,0,0,5.3,1.4,10.59,10.59,0,0,0,5.37-1.37,9.62,9.62,0,0,0,3.75-4,13,13,0,0,0,1.37-6.08A12.71,12.71,0,0,0,368.24,47.07Z" fill="#3f3f59"/><path d="M385.14,65.94a12.86,12.86,0,0,1-5-5.07,15.53,15.53,0,0,1-1.84-7.68,15.31,15.31,0,0,1,1.86-7.67,13.07,13.07,0,0,1,5.07-5.07,14.52,14.52,0,0,1,7.19-1.78,14.68,14.68,0,0,1,7.21,1.78,12.79,12.79,0,0,1,5.06,5.07,15.41,15.41,0,0,1,1.84,7.67,15.38,15.38,0,0,1-1.86,7.66,12.92,12.92,0,0,1-5.12,5.09,14.79,14.79,0,0,1-7.24,1.78A14.38,14.38,0,0,1,385.14,65.94Zm12.33-2.64a9.62,9.62,0,0,0,3.85-3.82,12.35,12.35,0,0,0,1.48-6.29,12.65,12.65,0,0,0-1.45-6.28,9.51,9.51,0,0,0-3.83-3.82,11.16,11.16,0,0,0-10.34,0,9.3,9.3,0,0,0-3.79,3.82A12.76,12.76,0,0,0,382,53.19a12.77,12.77,0,0,0,1.43,6.29,9.32,9.32,0,0,0,3.77,3.82,10.61,10.61,0,0,0,5.14,1.27A10.75,10.75,0,0,0,397.47,63.3Z" fill="#3f3f59"/><path d="M434.64,41.69q3.21,3.14,3.21,9.08V67.31h-3.57V51.18q0-4.6-2.3-7a8.25,8.25,0,0,0-6.28-2.43,8.53,8.53,0,0,0-6.52,2.58q-2.43,2.6-2.43,7.6V67.31h-3.61V39.08h3.61v4.81a9.32,9.32,0,0,1,3.88-4,11.91,11.91,0,0,1,5.74-1.37A11.37,11.37,0,0,1,434.64,41.69Z" fill="#3f3f59"/><path d="M471.29,54.59H447.87a11.44,11.44,0,0,0,1.55,5.48,9.18,9.18,0,0,0,3.67,3.44,10.82,10.82,0,0,0,5,1.16A10,10,0,0,0,464,63a8,8,0,0,0,3.17-4.6H471a11.94,11.94,0,0,1-4.42,6.75,13.52,13.52,0,0,1-8.5,2.61,14.22,14.22,0,0,1-7.14-1.78A12.54,12.54,0,0,1,446,60.87a15.84,15.84,0,0,1-1.79-7.68,16.23,16.23,0,0,1,1.76-7.7,12.23,12.23,0,0,1,4.91-5.06,14.53,14.53,0,0,1,7.19-1.76,13.79,13.79,0,0,1,7.05,1.76,12.17,12.17,0,0,1,4.66,4.73,13.54,13.54,0,0,1,1.62,6.59C471.39,53,471.36,53.94,471.29,54.59Zm-4.83-8.32a8.57,8.57,0,0,0-3.6-3.36,10.89,10.89,0,0,0-5-1.14A9.84,9.84,0,0,0,451,44.35a10.35,10.35,0,0,0-3.16,7.29h19.85A9.94,9.94,0,0,0,466.46,46.27Z" fill="#3f3f59"/><path d="M499.52,41.69q3.19,3.14,3.2,9.08V67.31h-3.57V51.18c0-3.07-.76-5.41-2.3-7a8.22,8.22,0,0,0-6.28-2.43,8.52,8.52,0,0,0-6.51,2.58q-2.43,2.6-2.43,7.6V67.31H478V39.08h3.62v4.81a9.27,9.27,0,0,1,3.88-4,11.87,11.87,0,0,1,5.73-1.37A11.39,11.39,0,0,1,499.52,41.69Z" fill="#3f3f59"/><path d="M515.44,42.13V59.66c0,1.72.32,2.91,1,3.56a4.8,4.8,0,0,0,3.46,1h3.31v3.1h-3.88q-3.82,0-5.68-1.79t-1.86-5.86V42.13h-3.93V39.08h3.93V32h3.67v7.08h7.75v3.05Z" fill="#3f3f59"/><path d="M530.92,65.47a8.19,8.19,0,0,1-3.44-6.12h3.72a5.33,5.33,0,0,0,2.25,3.85,8.82,8.82,0,0,0,5.35,1.47,7,7,0,0,0,4.63-1.4,4.32,4.32,0,0,0,1.68-3.46,3.23,3.23,0,0,0-.93-2.38A6.63,6.63,0,0,0,541.83,56,36.83,36.83,0,0,0,538,54.8a39,39,0,0,1-5.11-1.66,8.82,8.82,0,0,1-3.34-2.45,7.09,7.09,0,0,1-.13-8.2,8.49,8.49,0,0,1,3.52-2.79,12.33,12.33,0,0,1,5.17-1,11.19,11.19,0,0,1,7.34,2.3,8.35,8.35,0,0,1,3,6.33H544.8a5.5,5.5,0,0,0-1.94-4A7.27,7.27,0,0,0,538,41.77a7.18,7.18,0,0,0-4.44,1.29,3.89,3.89,0,0,0-1.71,3.21,3.77,3.77,0,0,0,1,2.71,6.93,6.93,0,0,0,2.51,1.66c1,.39,2.34.83,4,1.31a39.24,39.24,0,0,1,4.86,1.61,8.29,8.29,0,0,1,3.1,2.27,6.14,6.14,0,0,1,1.35,4,6.92,6.92,0,0,1-1.25,4.06A8.4,8.4,0,0,1,544,66.69a12,12,0,0,1-5.12,1A13.09,13.09,0,0,1,530.92,65.47Z" fill="#3f3f59"/></svg>